<?xml version="1.0" encoding="utf-8"?>
<!-- Generator: Adobe Illustrator 26.2.1, SVG Export Plug-In . SVG Version: 6.00 Build 0)  -->
<svg version="1.1" id="Layer_1" xmlns="http://www.w3.org/2000/svg" xmlns:xlink="http://www.w3.org/1999/xlink" x="0px" y="0px"
	 viewBox="0 0 20 20" style="enable-background:new 0 0 20 20;" xml:space="preserve">
<style type="text/css">
	.st0{fill:#E3E4FF;}
</style>
<g>
	<g>
		<path class="st0" d="M12.6,5.1l0.9-0.9H1.7c-0.4,0-0.8-0.4-0.8-0.8s0.4-0.8,0.8-0.8h13.5L16,1.7H1.7C0.9,1.7,0.2,2.3,0,3
			c0,0.1,0,0.1,0,0.2v13.3c0,0.2,0,0.4,0.1,0.6l0.8-0.7V4.9C1.1,5,1.4,5.1,1.7,5.1H12.6z"/>
		<path class="st0" d="M18.7,4.3l-0.8,0.8h0.4c0.4,0,0.8,0.4,0.8,0.8v10.7c0,0.4-0.4,0.8-0.8,0.8H5.2l-0.9,0.9h14
			c0.9,0,1.7-0.7,1.7-1.7V5.9C20,5.1,19.5,4.5,18.7,4.3z"/>
		<path class="st0" d="M18.9,1.6c-0.2-0.2-0.5-0.2-0.7,0L1.5,17.8c-0.2,0.2-0.2,0.5,0,0.7c0.1,0.1,0.2,0.1,0.3,0.1
			c0.1,0,0.2,0,0.3-0.1L18.9,2.2C19,2.1,19,1.8,18.9,1.6z"/>
	</g>
</g>
</svg>
