<?xml version="1.0" encoding="utf-8"?>
<!-- Generator: Adobe Illustrator 26.2.1, SVG Export Plug-In . SVG Version: 6.00 Build 0)  -->
<svg version="1.1" id="Layer_1" xmlns="http://www.w3.org/2000/svg" xmlns:xlink="http://www.w3.org/1999/xlink" x="0px" y="0px"
	 viewBox="0 0 21 21" style="enable-background:new 0 0 21 21;" xml:space="preserve">
<style type="text/css">
	.st0{fill:#E3E4FF;}
</style>
<g>
	<g>
		<path class="st0" d="M18,5.3H3C2.6,5.3,2.3,5,2.3,4.6S2.6,3.9,3,3.9h15.1c0.2,0,0.4-0.2,0.4-0.4s-0.2-0.4-0.4-0.4H3
			c-0.7,0-1.3,0.5-1.5,1.2c0,0.1,0,0.1,0,0.2v12C1.5,17.3,2.2,18,3,18h15c0.8,0,1.5-0.7,1.5-1.5V6.8C19.5,6,18.8,5.3,18,5.3z
			 M18.7,6.8v9.6c0,0.4-0.3,0.7-0.7,0.7H3c-0.4,0-0.7-0.3-0.7-0.7V5.9C2.5,6,2.8,6.1,3,6.1h15C18.4,6.1,18.7,6.4,18.7,6.8z"/>
		<path class="st0" d="M9.6,13.1l-1.8-1.8l-0.6,0.6l2.1,2C9.4,14,9.5,14,9.6,14s0.2,0,0.3-0.1l4.6-4.4L13.9,9L9.6,13.1z"/>
	</g>
</g>
</svg>
