<?xml version="1.0" encoding="utf-8"?>
<!-- Generator: Adobe Illustrator 26.2.1, SVG Export Plug-In . SVG Version: 6.00 Build 0)  -->
<svg version="1.1" id="Layer_1" xmlns="http://www.w3.org/2000/svg" xmlns:xlink="http://www.w3.org/1999/xlink" x="0px" y="0px"
	 viewBox="0 0 20 20" style="enable-background:new 0 0 20 20;" xml:space="preserve">
<style type="text/css">
	.st0{fill:#E3E4FF;}
</style>
<path class="st0" d="M17.5,4.8h-15c-0.4,0-0.7-0.2-0.7-0.6s0.3-0.7,0.7-0.7h15.1C17.8,3.4,18,3.2,18,3c0-0.3-0.2-0.4-0.4-0.4H2.5
	C1.8,2.6,1.2,3.1,1,3.8V16c0,0.9,0.7,1.5,1.5,1.5h15c0.9,0,1.5-0.7,1.5-1.5V6.3C19,5.4,18.3,4.8,17.5,4.8z M13.6,11.3
	c0-0.6,0.4-1,1-1h3.6v2.1h-3.6C14,12.4,13.6,11.9,13.6,11.3z M12.8,11.3c0,1,0.8,1.8,1.8,1.8h3.6V16c0,0.4-0.3,0.7-0.7,0.7h-15
	c-0.4,0-0.7-0.3-0.7-0.7V5.4C2,5.5,2.2,5.7,2.5,5.7h15c0.4,0,0.7,0.3,0.7,0.7v3.1h-3.6C13.6,9.5,12.8,10.3,12.8,11.3z"/>
</svg>
