<?xml version="1.0" encoding="utf-8"?>
<!-- Generator: Adobe Illustrator 26.0.3, SVG Export Plug-In . SVG Version: 6.00 Build 0)  -->
<svg version="1.1" id="Layer_1" xmlns="http://www.w3.org/2000/svg" xmlns:xlink="http://www.w3.org/1999/xlink" x="0px" y="0px"
	 viewBox="0 0 43 47" style="enable-background:new 0 0 43 47;" xml:space="preserve">
<style type="text/css">
	.st0{fill:none;}
	.st1{opacity:0.75;fill:##E3E4FF;enable-background:new    ;}
	.st2{fill:#56DCD7;}
	.st3{fill:url(#SVGID_1_);}
</style>
<g>
	<rect id="canvas_background" x="-1" y="-1" class="st0" width="45" height="49"/>
</g>
<g>
	<path id="svg_1" class="st1" d="M117,354v-11.6h7v1.2h-5.6v3.9h5v1.2h-5v5.2H117z M126.2,354v-8.7h1.3v8.7H126.2z M126.9,343.8
		c-0.3,0-0.5-0.1-0.7-0.3c-0.2-0.2-0.3-0.4-0.3-0.6s0.1-0.5,0.3-0.6c0.2-0.2,0.4-0.3,0.7-0.3s0.5,0.1,0.7,0.3
		c0.2,0.2,0.3,0.4,0.3,0.6s-0.1,0.5-0.3,0.6C127.4,343.7,127.2,343.8,126.9,343.8z M130,354v-8.7h1.3v1.3h0.1
		c0.2-0.4,0.4-0.8,0.9-1.1c0.4-0.3,0.9-0.4,1.4-0.4c0.1,0,0.2,0,0.4,0c0.1,0,0.3,0,0.3,0v1.4c0,0-0.1,0-0.3-0.1c-0.2,0-0.3,0-0.5,0
		c-0.4,0-0.8,0.1-1.1,0.3c-0.3,0.2-0.6,0.4-0.8,0.7c-0.2,0.3-0.3,0.7-0.3,1.1v5.5L130,354L130,354z M142.2,347.2l-1.2,0.3
		c-0.1-0.2-0.2-0.4-0.3-0.6c-0.1-0.2-0.3-0.4-0.6-0.5s-0.6-0.2-1-0.2c-0.5,0-1,0.1-1.3,0.4c-0.4,0.2-0.5,0.6-0.5,0.9
		c0,0.3,0.1,0.6,0.4,0.8c0.2,0.2,0.6,0.4,1.1,0.5l1.3,0.3c0.8,0.2,1.4,0.5,1.7,0.9c0.4,0.4,0.6,0.9,0.6,1.5c0,0.5-0.1,0.9-0.4,1.3
		c-0.3,0.4-0.7,0.7-1.2,0.9c-0.5,0.2-1.1,0.3-1.8,0.3c-0.9,0-1.6-0.2-2.2-0.6c-0.6-0.4-1-1-1.1-1.7l1.3-0.3c0.1,0.5,0.4,0.8,0.7,1.1
		c0.3,0.2,0.8,0.4,1.3,0.4c0.6,0,1.1-0.1,1.5-0.4c0.4-0.3,0.6-0.6,0.6-1c0-0.3-0.1-0.6-0.3-0.8c-0.2-0.2-0.5-0.4-1-0.5l-1.5-0.3
		c-0.8-0.2-1.4-0.5-1.8-0.9c-0.4-0.4-0.6-0.9-0.6-1.5c0-0.5,0.1-0.9,0.4-1.3c0.3-0.4,0.7-0.7,1.1-0.9c0.5-0.2,1-0.3,1.6-0.3
		c0.9,0,1.5,0.2,2,0.6C141.6,346.1,142,346.6,142.2,347.2L142.2,347.2z M148.1,345.3v1.1h-4.5v-1.1H148.1z M144.9,343.2h1.3v8.3
		c0,0.4,0.1,0.7,0.2,0.9c0.1,0.2,0.3,0.3,0.4,0.4c0.2,0.1,0.4,0.1,0.6,0.1c0.1,0,0.3,0,0.4,0c0.1,0,0.2,0,0.2,0l0.3,1.2
		c-0.1,0-0.2,0.1-0.4,0.1c-0.2,0-0.4,0.1-0.6,0.1c-0.4,0-0.8-0.1-1.1-0.2c-0.4-0.2-0.7-0.4-0.9-0.7c-0.2-0.3-0.4-0.8-0.4-1.3V343.2
		L144.9,343.2z M158.5,345.3v1.1h-4.5v-1.1H158.5z M155.2,343.2h1.3v8.3c0,0.4,0.1,0.7,0.2,0.9c0.1,0.2,0.3,0.3,0.4,0.4
		c0.2,0.1,0.4,0.1,0.6,0.1c0.1,0,0.3,0,0.4,0c0.1,0,0.2,0,0.2,0l0.3,1.2c-0.1,0-0.2,0.1-0.4,0.1c-0.2,0-0.4,0.1-0.6,0.1
		c-0.4,0-0.8-0.1-1.1-0.2c-0.4-0.2-0.7-0.4-0.9-0.7c-0.2-0.3-0.4-0.8-0.4-1.3V343.2L155.2,343.2z M160.5,354v-8.7h1.3v8.7H160.5z
		 M161.2,343.8c-0.3,0-0.5-0.1-0.7-0.3c-0.2-0.2-0.3-0.4-0.3-0.6s0.1-0.5,0.3-0.6c0.2-0.2,0.4-0.3,0.7-0.3c0.3,0,0.5,0.1,0.7,0.3
		c0.2,0.2,0.3,0.4,0.3,0.6s-0.1,0.5-0.3,0.6C161.6,343.7,161.4,343.8,161.2,343.8z M164.3,354v-8.7h1.3v1.4h0.1
		c0.2-0.5,0.5-0.8,0.9-1.1c0.4-0.3,0.9-0.4,1.5-0.4c0.6,0,1.1,0.1,1.4,0.4c0.4,0.3,0.7,0.6,0.9,1.1h0.1c0.2-0.5,0.6-0.8,1-1.1
		c0.4-0.3,1-0.4,1.6-0.4c0.8,0,1.4,0.2,1.9,0.7c0.5,0.5,0.7,1.2,0.7,2.3v5.8h-1.3v-5.8c0-0.6-0.2-1.1-0.5-1.4
		c-0.4-0.3-0.8-0.4-1.2-0.4c-0.6,0-1.1,0.2-1.4,0.6c-0.3,0.4-0.5,0.8-0.5,1.4v5.7h-1.4v-6c0-0.5-0.2-0.9-0.5-1.2
		c-0.3-0.3-0.7-0.5-1.2-0.5c-0.3,0-0.7,0.1-1,0.3c-0.3,0.2-0.5,0.4-0.7,0.8c-0.2,0.3-0.3,0.7-0.3,1.1v5.5L164.3,354L164.3,354z
		 M181.8,354.2c-0.8,0-1.6-0.2-2.2-0.6c-0.6-0.4-1.1-0.9-1.4-1.6c-0.3-0.7-0.5-1.5-0.5-2.4c0-0.9,0.2-1.7,0.5-2.4
		c0.3-0.7,0.8-1.2,1.4-1.6c0.6-0.4,1.3-0.6,2.1-0.6c0.5,0,0.9,0.1,1.3,0.2c0.4,0.2,0.8,0.4,1.2,0.7c0.4,0.3,0.7,0.8,0.9,1.3
		c0.2,0.6,0.3,1.2,0.3,2.1v0.6h-6.7v-1.2h5.4c0-0.5-0.1-0.9-0.3-1.3c-0.2-0.4-0.5-0.7-0.8-0.9c-0.4-0.2-0.8-0.3-1.3-0.3
		c-0.5,0-1,0.1-1.4,0.4c-0.4,0.3-0.7,0.6-0.9,1c-0.2,0.4-0.3,0.9-0.3,1.4v0.8c0,0.7,0.1,1.2,0.3,1.7c0.2,0.5,0.6,0.8,1,1
		c0.4,0.2,0.9,0.4,1.4,0.4c0.4,0,0.7,0,1-0.1c0.3-0.1,0.5-0.3,0.7-0.5c0.2-0.2,0.4-0.5,0.5-0.8l1.3,0.4c-0.1,0.4-0.4,0.8-0.7,1.2
		c-0.3,0.3-0.7,0.6-1.2,0.8C183,354.1,182.4,354.2,181.8,354.2L181.8,354.2z M195.8,345.3v1.1h-4.5v-1.1H195.8z M192.6,343.2h1.3
		v8.3c0,0.4,0.1,0.7,0.2,0.9c0.1,0.2,0.3,0.3,0.4,0.4c0.2,0.1,0.4,0.1,0.6,0.1c0.1,0,0.3,0,0.4,0c0.1,0,0.2,0,0.2,0l0.3,1.2
		c-0.1,0-0.2,0.1-0.4,0.1c-0.2,0-0.4,0.1-0.6,0.1c-0.4,0-0.8-0.1-1.1-0.2c-0.4-0.2-0.7-0.4-0.9-0.7c-0.2-0.3-0.4-0.8-0.4-1.3V343.2
		L192.6,343.2z M197.8,354v-8.7h1.3v1.3h0.1c0.2-0.4,0.4-0.8,0.9-1.1c0.4-0.3,0.9-0.4,1.4-0.4c0.1,0,0.2,0,0.4,0c0.1,0,0.3,0,0.3,0
		v1.4c0,0-0.1,0-0.3-0.1c-0.2,0-0.3,0-0.5,0c-0.4,0-0.8,0.1-1.1,0.3c-0.3,0.2-0.6,0.4-0.8,0.7c-0.2,0.3-0.3,0.7-0.3,1.1v5.5
		L197.8,354L197.8,354z M206.3,354.2c-0.6,0-1.1-0.1-1.5-0.3c-0.5-0.2-0.8-0.5-1.1-0.9c-0.3-0.4-0.4-0.9-0.4-1.5
		c0-0.5,0.1-0.9,0.3-1.2c0.2-0.3,0.5-0.6,0.8-0.7c0.3-0.2,0.7-0.3,1.1-0.4c0.4-0.1,0.8-0.2,1.2-0.2c0.5-0.1,1-0.1,1.3-0.2
		c0.3,0,0.6-0.1,0.7-0.2c0.2-0.1,0.2-0.2,0.2-0.5v0c0-0.6-0.2-1-0.5-1.3c-0.3-0.3-0.8-0.5-1.4-0.5c-0.6,0-1.1,0.1-1.5,0.4
		c-0.4,0.3-0.6,0.6-0.8,0.9l-1.3-0.5c0.2-0.5,0.5-0.9,0.9-1.2c0.4-0.3,0.8-0.5,1.2-0.6c0.5-0.1,0.9-0.2,1.3-0.2c0.3,0,0.6,0,1,0.1
		c0.4,0.1,0.7,0.2,1.1,0.4c0.3,0.2,0.6,0.5,0.9,0.9s0.3,1,0.3,1.7v5.8H209v-1.2h-0.1c-0.1,0.2-0.2,0.4-0.5,0.6s-0.5,0.4-0.8,0.6
		C207.3,354.1,206.8,354.2,206.3,354.2L206.3,354.2z M206.5,353c0.5,0,1-0.1,1.3-0.3c0.4-0.2,0.6-0.5,0.8-0.8c0.2-0.3,0.3-0.7,0.3-1
		v-1.2c-0.1,0.1-0.2,0.1-0.4,0.2c-0.2,0.1-0.4,0.1-0.7,0.1c-0.2,0-0.5,0.1-0.7,0.1c-0.2,0-0.4,0-0.6,0.1c-0.3,0-0.7,0.1-1,0.2
		c-0.3,0.1-0.5,0.2-0.7,0.4c-0.2,0.2-0.3,0.5-0.3,0.8c0,0.5,0.2,0.8,0.5,1.1C205.5,352.9,206,353,206.5,353z M216.1,354.2
		c-0.7,0-1.4-0.2-1.9-0.6c-0.6-0.4-1-0.9-1.3-1.6c-0.3-0.7-0.5-1.5-0.5-2.4c0-0.9,0.2-1.7,0.5-2.4c0.3-0.7,0.8-1.2,1.3-1.6
		c0.6-0.4,1.2-0.6,1.9-0.6c0.6,0,1,0.1,1.3,0.3c0.3,0.2,0.6,0.4,0.8,0.6c0.2,0.2,0.3,0.4,0.4,0.6h0.1v-4.3h1.3V354h-1.3v-1.3h-0.2
		c-0.1,0.2-0.2,0.4-0.4,0.6c-0.2,0.2-0.4,0.5-0.8,0.6C217.1,354.1,216.6,354.2,216.1,354.2L216.1,354.2z M216.2,353
		c0.5,0,1-0.1,1.4-0.4c0.4-0.3,0.7-0.7,0.8-1.2c0.2-0.5,0.3-1.1,0.3-1.7c0-0.7-0.1-1.2-0.3-1.7c-0.2-0.5-0.5-0.9-0.8-1.1
		c-0.4-0.3-0.8-0.4-1.4-0.4c-0.6,0-1,0.1-1.4,0.4c-0.4,0.3-0.7,0.7-0.8,1.2c-0.2,0.5-0.3,1-0.3,1.7c0,0.6,0.1,1.2,0.3,1.7
		c0.2,0.5,0.5,0.9,0.9,1.2C215.2,352.8,215.7,353,216.2,353L216.2,353z M222.7,354v-8.7h1.3v8.7H222.7z M223.4,343.8
		c-0.3,0-0.5-0.1-0.7-0.3c-0.2-0.2-0.3-0.4-0.3-0.6s0.1-0.5,0.3-0.6c0.2-0.2,0.4-0.3,0.7-0.3c0.3,0,0.5,0.1,0.7,0.3
		c0.2,0.2,0.3,0.4,0.3,0.6s-0.1,0.5-0.3,0.6C223.9,343.7,223.6,343.8,223.4,343.8z M227.8,348.8v5.2h-1.3v-8.7h1.3v1.4h0.1
		c0.2-0.4,0.5-0.8,0.9-1.1c0.4-0.3,1-0.4,1.6-0.4c0.6,0,1.1,0.1,1.6,0.4c0.4,0.2,0.8,0.6,1,1.1c0.2,0.5,0.4,1.1,0.4,1.8v5.5h-1.3
		v-5.5c0-0.7-0.2-1.2-0.5-1.6c-0.4-0.4-0.8-0.6-1.5-0.6c-0.4,0-0.8,0.1-1.1,0.3c-0.3,0.2-0.6,0.5-0.8,0.8
		C227.9,347.8,227.8,348.2,227.8,348.8L227.8,348.8z M239.4,357.5c-0.6,0-1.2-0.1-1.7-0.2c-0.5-0.2-0.9-0.4-1.2-0.6
		c-0.3-0.3-0.6-0.5-0.7-0.9l1.1-0.8c0.1,0.2,0.3,0.3,0.5,0.5c0.2,0.2,0.4,0.4,0.8,0.5c0.3,0.2,0.8,0.2,1.3,0.2
		c0.7,0,1.3-0.2,1.7-0.5c0.5-0.3,0.7-0.9,0.7-1.6v-1.8h-0.1c-0.1,0.2-0.2,0.4-0.4,0.6c-0.2,0.2-0.4,0.4-0.8,0.6
		c-0.3,0.2-0.8,0.3-1.4,0.3c-0.7,0-1.3-0.2-1.9-0.5c-0.6-0.3-1-0.8-1.3-1.5c-0.3-0.6-0.5-1.4-0.5-2.3c0-0.9,0.2-1.7,0.5-2.3
		c0.3-0.7,0.8-1.2,1.3-1.5c0.6-0.4,1.2-0.6,1.9-0.6c0.6,0,1,0.1,1.4,0.3c0.3,0.2,0.6,0.4,0.8,0.6c0.2,0.2,0.3,0.4,0.4,0.6h0.1v-1.4
		h1.3v9c0,0.8-0.2,1.4-0.5,1.8c-0.3,0.5-0.8,0.8-1.4,1C240.7,357.3,240.1,357.5,239.4,357.5L239.4,357.5z M239.3,352.7
		c0.5,0,1-0.1,1.4-0.4s0.7-0.6,0.8-1.1c0.2-0.5,0.3-1,0.3-1.7c0-0.6-0.1-1.2-0.3-1.7c-0.2-0.5-0.5-0.9-0.8-1.1
		c-0.4-0.3-0.8-0.4-1.4-0.4c-0.6,0-1,0.1-1.4,0.4c-0.4,0.3-0.7,0.7-0.8,1.2c-0.2,0.5-0.3,1-0.3,1.6c0,0.6,0.1,1.1,0.3,1.6
		c0.2,0.5,0.5,0.8,0.9,1.1C238.3,352.5,238.8,352.7,239.3,352.7L239.3,352.7z M135.7,374.2c-0.8,0-1.5-0.2-2.1-0.6
		c-0.6-0.4-1.1-0.9-1.4-1.6c-0.3-0.7-0.5-1.5-0.5-2.4c0-0.9,0.2-1.7,0.5-2.4c0.3-0.7,0.8-1.2,1.4-1.6c0.6-0.4,1.3-0.6,2.1-0.6
		c0.8,0,1.5,0.2,2.1,0.6c0.6,0.4,1.1,0.9,1.4,1.6c0.3,0.7,0.5,1.5,0.5,2.4c0,0.9-0.2,1.7-0.5,2.4c-0.3,0.7-0.8,1.2-1.4,1.6
		C137.2,374,136.5,374.2,135.7,374.2z M135.7,373c0.6,0,1.1-0.2,1.5-0.5c0.4-0.3,0.7-0.7,0.9-1.2c0.2-0.5,0.3-1,0.3-1.6
		c0-0.6-0.1-1.1-0.3-1.6c-0.2-0.5-0.5-0.9-0.9-1.2c-0.4-0.3-0.9-0.5-1.5-0.5c-0.6,0-1.1,0.2-1.5,0.5c-0.4,0.3-0.7,0.7-0.9,1.2
		c-0.2,0.5-0.3,1-0.3,1.6c0,0.6,0.1,1.1,0.3,1.6c0.2,0.5,0.5,0.9,0.9,1.2C134.6,372.8,135.1,373,135.7,373z M143.1,368.8v5.2h-1.3
		v-8.7h1.3v1.4h0.1c0.2-0.4,0.5-0.8,0.9-1.1c0.4-0.3,1-0.4,1.6-0.4c0.6,0,1.1,0.1,1.6,0.4c0.4,0.2,0.8,0.6,1,1.1
		c0.2,0.5,0.4,1.1,0.4,1.8v5.5h-1.3v-5.5c0-0.7-0.2-1.2-0.5-1.6c-0.4-0.4-0.8-0.6-1.5-0.6c-0.4,0-0.8,0.1-1.1,0.3
		c-0.3,0.2-0.6,0.5-0.8,0.8C143.2,367.8,143.1,368.2,143.1,368.8L143.1,368.8z M155.5,374v-11.6h4.4c0.9,0,1.6,0.2,2.2,0.5
		c0.6,0.3,1.1,0.7,1.4,1.3c0.3,0.6,0.5,1.2,0.5,1.9c0,0.7-0.2,1.4-0.5,1.9c-0.3,0.5-0.8,1-1.4,1.3c-0.6,0.3-1.4,0.4-2.3,0.4h-3.1
		V368h2.8c0.5,0,1-0.1,1.3-0.2c0.3-0.1,0.6-0.4,0.7-0.6c0.2-0.3,0.2-0.6,0.2-1s-0.1-0.8-0.2-1.1c-0.2-0.3-0.4-0.5-0.7-0.7
		c-0.3-0.2-0.8-0.2-1.3-0.2h-1.9v9.9H155.5z M161.5,368.7l2.9,5.3h-2.4l-2.8-5.3H161.5L161.5,368.7z M168.3,374.2
		c-0.6,0-1.1-0.1-1.5-0.3c-0.4-0.2-0.8-0.5-1-0.9c-0.3-0.4-0.4-0.9-0.4-1.4c0-0.5,0.1-0.9,0.3-1.2c0.2-0.3,0.4-0.6,0.7-0.8
		c0.3-0.2,0.7-0.3,1.1-0.4c0.4-0.1,0.8-0.2,1.2-0.2c0.5-0.1,0.9-0.1,1.2-0.1c0.3,0,0.5-0.1,0.7-0.2c0.1-0.1,0.2-0.2,0.2-0.4v0
		c0-0.4-0.1-0.8-0.4-1s-0.6-0.4-1.1-0.4c-0.5,0-0.9,0.1-1.2,0.3c-0.3,0.2-0.5,0.5-0.6,0.8l-1.9-0.3c0.2-0.5,0.4-1,0.8-1.3
		c0.3-0.4,0.8-0.6,1.3-0.8c0.5-0.2,1.1-0.3,1.7-0.3c0.4,0,0.8,0,1.3,0.1c0.4,0.1,0.8,0.3,1.1,0.5c0.3,0.2,0.6,0.5,0.8,0.9
		c0.2,0.4,0.3,0.9,0.3,1.4v5.8h-2v-1.2h-0.1c-0.1,0.2-0.3,0.5-0.5,0.7c-0.2,0.2-0.5,0.4-0.8,0.5
		C169.2,374.1,168.8,374.2,168.3,374.2L168.3,374.2z M168.9,372.7c0.4,0,0.8-0.1,1.1-0.2c0.3-0.2,0.5-0.4,0.7-0.7
		c0.2-0.3,0.2-0.6,0.2-0.9v-1c-0.1,0.1-0.2,0.1-0.3,0.1c-0.2,0-0.3,0.1-0.5,0.1c-0.2,0-0.4,0.1-0.6,0.1c-0.2,0-0.3,0-0.5,0.1
		c-0.3,0-0.6,0.1-0.8,0.2c-0.2,0.1-0.4,0.2-0.6,0.4c-0.1,0.2-0.2,0.4-0.2,0.6c0,0.4,0.1,0.7,0.4,0.9
		C168.1,372.6,168.4,372.7,168.9,372.7L168.9,372.7z M176,377.3c-0.3,0-0.5,0-0.8-0.1c-0.2,0-0.4-0.1-0.6-0.2l0.5-1.6
		c0.4,0.1,0.8,0.1,1.1,0.1c0.3-0.1,0.6-0.4,0.8-0.8l0.2-0.5l-3.2-8.9h2.2l2,6.6h0.1l2-6.6l2.2,0l-3.5,9.8c-0.2,0.5-0.4,0.8-0.6,1.2
		c-0.3,0.3-0.6,0.6-1,0.8C177,377.2,176.5,377.3,176,377.3L176,377.3z M186.9,374.2c-0.7,0-1.3-0.2-1.8-0.5c-0.5-0.4-1-0.9-1.3-1.5
		c-0.3-0.7-0.5-1.5-0.5-2.4c0-1,0.2-1.8,0.5-2.5c0.3-0.7,0.8-1.2,1.3-1.5c0.5-0.3,1.2-0.5,1.8-0.5c0.5,0,0.9,0.1,1.3,0.3
		c0.3,0.2,0.6,0.4,0.8,0.6c0.2,0.2,0.3,0.5,0.4,0.7h0.1v-4.4h2.1V374h-2v-1.4h-0.1c-0.1,0.2-0.3,0.4-0.5,0.7
		c-0.2,0.2-0.5,0.4-0.8,0.6C187.8,374.1,187.4,374.2,186.9,374.2L186.9,374.2z M187.5,372.5c0.4,0,0.8-0.1,1.1-0.4
		c0.3-0.2,0.5-0.6,0.7-1c0.2-0.4,0.2-0.9,0.2-1.5c0-0.6-0.1-1.1-0.2-1.5c-0.2-0.4-0.4-0.7-0.7-1c-0.3-0.2-0.7-0.3-1.1-0.3
		c-0.5,0-0.8,0.1-1.1,0.4c-0.3,0.2-0.5,0.6-0.7,1c-0.2,0.4-0.2,0.9-0.2,1.4c0,0.5,0.1,1,0.2,1.5c0.2,0.4,0.4,0.8,0.7,1
		C186.6,372.3,187,372.5,187.5,372.5L187.5,372.5z M193.7,374v-8.7h2.1v8.7H193.7z M194.8,364c-0.3,0-0.6-0.1-0.8-0.3
		c-0.2-0.2-0.3-0.5-0.3-0.8c0-0.3,0.1-0.6,0.4-0.8c0.2-0.2,0.5-0.3,0.8-0.3s0.6,0.1,0.8,0.3c0.2,0.2,0.4,0.5,0.4,0.8
		c0,0.3-0.1,0.6-0.4,0.8C195.4,363.9,195.1,364,194.8,364L194.8,364z M203.5,370.3v-5.1h2.1v8.7h-2v-1.6h-0.1
		c-0.2,0.5-0.5,0.9-1,1.2c-0.4,0.3-1,0.5-1.7,0.5c-0.6,0-1.1-0.1-1.5-0.4c-0.4-0.3-0.8-0.6-1-1.1c-0.2-0.5-0.4-1.1-0.4-1.8v-5.6h2.1
		v5.2c0,0.6,0.2,1,0.5,1.3c0.3,0.3,0.7,0.5,1.2,0.5c0.3,0,0.6-0.1,0.9-0.2c0.3-0.1,0.5-0.4,0.7-0.7
		C203.4,371.1,203.5,370.8,203.5,370.3z M207.6,374v-8.7h2v1.5h0.1c0.2-0.5,0.5-0.9,0.9-1.2c0.4-0.3,0.9-0.4,1.5-0.4
		c0.6,0,1.1,0.1,1.5,0.4c0.4,0.3,0.7,0.7,0.9,1.2h0.1c0.2-0.5,0.5-0.9,1-1.2c0.5-0.3,1-0.4,1.6-0.4c0.8,0,1.5,0.3,2,0.8
		c0.5,0.5,0.8,1.2,0.8,2.2v5.9h-2.1v-5.5c0-0.5-0.1-0.9-0.4-1.2c-0.3-0.3-0.6-0.4-1.1-0.4c-0.5,0-0.9,0.2-1.2,0.5
		c-0.3,0.3-0.4,0.7-0.4,1.2v5.4h-2v-5.6c0-0.5-0.1-0.8-0.4-1.1c-0.3-0.3-0.6-0.4-1.1-0.4c-0.3,0-0.6,0.1-0.8,0.2
		c-0.2,0.1-0.4,0.4-0.6,0.6c-0.1,0.3-0.2,0.6-0.2,0.9v5.3H207.6z M223.9,370.7L223.9,370.7c0-0.8,0.1-1.4,0.2-1.8
		c0.1-0.4,0.3-0.8,0.6-1s0.6-0.5,1-0.7c0.2-0.1,0.4-0.3,0.6-0.5c0.2-0.2,0.3-0.4,0.4-0.7c0.1-0.2,0.2-0.5,0.2-0.8
		c0-0.4-0.1-0.7-0.3-1c-0.2-0.3-0.4-0.5-0.7-0.6s-0.6-0.2-1-0.2c-0.3,0-0.6,0.1-0.9,0.2c-0.3,0.1-0.5,0.3-0.7,0.6
		c-0.2,0.3-0.3,0.6-0.3,1.1h-1.4c0-0.6,0.2-1.2,0.5-1.7c0.3-0.5,0.7-0.8,1.2-1.1c0.5-0.2,1.1-0.4,1.7-0.4c0.7,0,1.2,0.1,1.7,0.4
		c0.5,0.3,0.9,0.6,1.1,1.1c0.3,0.5,0.4,1,0.4,1.6c0,0.4-0.1,0.8-0.2,1.1c-0.1,0.3-0.3,0.6-0.5,0.9c-0.2,0.3-0.5,0.5-0.9,0.7
		c-0.3,0.2-0.6,0.4-0.8,0.7c-0.2,0.2-0.3,0.5-0.4,0.8s-0.1,0.7-0.1,1.2v0.1L223.9,370.7L223.9,370.7z M224.6,374.1
		c-0.3,0-0.5-0.1-0.7-0.3c-0.2-0.2-0.3-0.4-0.3-0.7s0.1-0.5,0.3-0.7c0.2-0.2,0.4-0.3,0.7-0.3c0.3,0,0.5,0.1,0.7,0.3
		c0.2,0.2,0.3,0.4,0.3,0.7c0,0.2,0,0.4-0.1,0.5c-0.1,0.2-0.2,0.3-0.4,0.4C225,374,224.8,374.1,224.6,374.1z"/>
	<path id="svg_3" class="st2" d="M127.4,399.7c0-0.4-0.2-0.7-0.5-0.9c-0.3-0.2-0.7-0.3-1.1-0.3c-0.3,0-0.6,0-0.8,0.1
		c-0.2,0.1-0.4,0.2-0.5,0.4c-0.1,0.2-0.2,0.4-0.2,0.6c0,0.2,0,0.3,0.1,0.5c0.1,0.1,0.2,0.2,0.3,0.3c0.1,0.1,0.3,0.2,0.5,0.2
		c0.2,0.1,0.4,0.1,0.5,0.2l0.8,0.2c0.3,0.1,0.6,0.2,0.9,0.3c0.3,0.1,0.6,0.3,0.8,0.5c0.2,0.2,0.4,0.4,0.6,0.7c0.1,0.3,0.2,0.6,0.2,1
		c0,0.5-0.1,1-0.4,1.4c-0.3,0.4-0.6,0.7-1.1,0.9c-0.5,0.2-1.1,0.3-1.8,0.3c-0.7,0-1.3-0.1-1.8-0.3c-0.5-0.2-0.9-0.5-1.2-0.9
		c-0.3-0.4-0.4-0.9-0.5-1.5h1.6c0,0.3,0.1,0.6,0.3,0.8c0.2,0.2,0.4,0.4,0.6,0.5c0.3,0.1,0.6,0.1,0.9,0.1c0.3,0,0.6-0.1,0.9-0.2
		c0.3-0.1,0.5-0.2,0.6-0.4c0.1-0.2,0.2-0.4,0.2-0.7c0-0.2-0.1-0.4-0.2-0.6c-0.1-0.1-0.3-0.3-0.5-0.4c-0.2-0.1-0.5-0.2-0.8-0.3
		l-1-0.3c-0.7-0.2-1.3-0.5-1.7-0.8c-0.4-0.4-0.6-0.9-0.6-1.5c0-0.5,0.1-1,0.4-1.4c0.3-0.4,0.7-0.7,1.1-0.9c0.5-0.2,1-0.3,1.6-0.3
		c0.6,0,1.2,0.1,1.6,0.3c0.5,0.2,0.8,0.5,1.1,0.9c0.3,0.4,0.4,0.8,0.4,1.3L127.4,399.7L127.4,399.7z M130.5,406v-8.7h5.7v1.3h-4.1
		v2.4h3.8v1.3h-3.8v2.4h4.1v1.3H130.5L130.5,406z M137.8,406v-8.7h5.7v1.3h-4.1v2.4h3.8v1.3h-3.8v2.4h4.1v1.3H137.8L137.8,406z
		 M148,406v-8.7h1.6v3.7h4v-3.7h1.6v8.7h-1.6v-3.7h-4v3.7H148z M164.8,401.6c0,0.9-0.2,1.7-0.5,2.4c-0.3,0.7-0.8,1.2-1.4,1.5
		c-0.6,0.4-1.3,0.5-2,0.5c-0.8,0-1.4-0.2-2.1-0.5c-0.6-0.4-1.1-0.9-1.4-1.5c-0.4-0.7-0.5-1.5-0.5-2.4c0-0.9,0.2-1.7,0.5-2.4
		c0.4-0.7,0.8-1.2,1.4-1.5c0.6-0.4,1.3-0.5,2.1-0.5s1.4,0.2,2,0.5c0.6,0.4,1.1,0.9,1.4,1.5C164.6,399.9,164.8,400.7,164.8,401.6z
		 M163.2,401.6c0-0.7-0.1-1.2-0.3-1.7c-0.2-0.5-0.5-0.8-0.9-1c-0.4-0.2-0.8-0.4-1.3-0.4c-0.5,0-0.9,0.1-1.3,0.4
		c-0.4,0.2-0.6,0.6-0.9,1c-0.2,0.5-0.3,1-0.3,1.7c0,0.7,0.1,1.2,0.3,1.7c0.2,0.5,0.5,0.8,0.9,1c0.4,0.2,0.8,0.3,1.3,0.3
		c0.5,0,0.9-0.1,1.3-0.3c0.4-0.2,0.6-0.6,0.9-1C163.1,402.9,163.2,402.3,163.2,401.6z M167.9,406l-2.5-8.7h1.7l1.6,6.4h0.1l1.7-6.4
		h1.5l1.7,6.4h0.1l1.6-6.4h1.7l-2.5,8.7H173l-1.7-6.1h-0.1l-1.8,6.1H167.9z M182.7,397.3v8.7h-1.6v-8.7H182.7z M184,398.6v-1.3h7
		v1.3h-2.7v7.4h-1.6v-7.4H184z M197.1,406l-2.5-8.7h1.7l1.6,6.4h0.1l1.7-6.4h1.5l1.7,6.4h0.1l1.6-6.4h1.7l-2.5,8.7h-1.6l-1.7-6.1
		h-0.1l-1.8,6.1H197.1z M214.7,401.6c0,0.9-0.2,1.7-0.5,2.4c-0.4,0.7-0.8,1.2-1.4,1.5c-0.6,0.4-1.3,0.5-2.1,0.5
		c-0.8,0-1.4-0.2-2.1-0.5c-0.6-0.4-1.1-0.9-1.4-1.5c-0.4-0.7-0.5-1.5-0.5-2.4c0-0.9,0.2-1.7,0.5-2.4c0.4-0.7,0.8-1.2,1.4-1.5
		c0.6-0.4,1.3-0.5,2.1-0.5c0.8,0,1.4,0.2,2.1,0.5c0.6,0.4,1.1,0.9,1.4,1.5C214.5,399.9,214.7,400.7,214.7,401.6z M213.1,401.6
		c0-0.7-0.1-1.2-0.3-1.7c-0.2-0.5-0.5-0.8-0.9-1c-0.4-0.2-0.8-0.4-1.3-0.4c-0.5,0-0.9,0.1-1.3,0.4c-0.4,0.2-0.6,0.6-0.9,1
		c-0.2,0.5-0.3,1-0.3,1.7c0,0.7,0.1,1.2,0.3,1.7c0.2,0.5,0.5,0.8,0.9,1c0.4,0.2,0.8,0.3,1.3,0.3c0.5,0,0.9-0.1,1.3-0.3
		c0.4-0.2,0.6-0.6,0.9-1C213,402.9,213.1,402.3,213.1,401.6z M216.2,406v-8.7h3.3c0.7,0,1.2,0.1,1.7,0.3c0.5,0.2,0.8,0.6,1,1
		c0.2,0.4,0.4,0.9,0.4,1.5c0,0.6-0.1,1-0.4,1.5c-0.2,0.4-0.6,0.7-1,1c-0.5,0.2-1,0.3-1.7,0.3h-2.3v-1.3h2.1c0.4,0,0.7-0.1,1-0.2
		c0.2-0.1,0.4-0.3,0.6-0.5c0.1-0.2,0.2-0.5,0.2-0.8s-0.1-0.6-0.2-0.8c-0.1-0.2-0.3-0.4-0.6-0.5c-0.2-0.1-0.6-0.2-1-0.2h-1.4v7.4
		L216.2,406L216.2,406z M220.7,402l2.2,4h-1.8l-2.1-4H220.7z M224,406v-8.7h1.6v4h0.1l3.4-4h1.9l-3.4,3.9l3.4,4.8h-1.9l-2.6-3.7
		l-1,1.1v2.6H224z M236.8,399.7c0-0.4-0.2-0.7-0.5-0.9c-0.3-0.2-0.7-0.3-1.1-0.3c-0.3,0-0.6,0-0.8,0.1c-0.2,0.1-0.4,0.2-0.5,0.4
		c-0.1,0.2-0.2,0.4-0.2,0.6c0,0.2,0,0.3,0.1,0.5c0.1,0.1,0.2,0.2,0.3,0.3c0.1,0.1,0.3,0.2,0.5,0.2c0.2,0.1,0.4,0.1,0.5,0.2l0.8,0.2
		c0.3,0.1,0.6,0.2,0.9,0.3c0.3,0.1,0.6,0.3,0.8,0.5c0.2,0.2,0.4,0.4,0.6,0.7s0.2,0.6,0.2,1c0,0.5-0.1,1-0.4,1.4
		c-0.3,0.4-0.6,0.7-1.1,0.9c-0.5,0.2-1.1,0.3-1.8,0.3c-0.7,0-1.3-0.1-1.8-0.3c-0.5-0.2-0.9-0.5-1.2-0.9c-0.3-0.4-0.4-0.9-0.5-1.5
		h1.6c0,0.3,0.1,0.6,0.3,0.8c0.2,0.2,0.4,0.4,0.6,0.5c0.3,0.1,0.6,0.1,0.9,0.1c0.3,0,0.6-0.1,0.9-0.2c0.3-0.1,0.5-0.2,0.6-0.4
		c0.1-0.2,0.2-0.4,0.2-0.7c0-0.2-0.1-0.4-0.2-0.6c-0.1-0.1-0.3-0.3-0.6-0.4c-0.2-0.1-0.5-0.2-0.8-0.3l-1-0.3
		c-0.7-0.2-1.3-0.5-1.7-0.8c-0.4-0.4-0.6-0.9-0.6-1.5c0-0.5,0.1-1,0.4-1.4c0.3-0.4,0.7-0.7,1.1-0.9c0.5-0.2,1-0.3,1.6-0.3
		c0.6,0,1.2,0.1,1.6,0.3c0.5,0.2,0.8,0.5,1.1,0.9c0.3,0.4,0.4,0.8,0.4,1.3L236.8,399.7L236.8,399.7z"/>
	<linearGradient id="SVGID_1_" gradientUnits="userSpaceOnUse" x1="21.5" y1="1.524" x2="21.5" y2="45.0878">
		<stop  offset="0" style="stop-color:#DADCF0"/>
		<stop  offset="0.2035" style="stop-color:#D6D8EC"/>
		<stop  offset="0.4144" style="stop-color:#C9CBE0"/>
		<stop  offset="0.6286" style="stop-color:#B5B7CB"/>
		<stop  offset="0.8439" style="stop-color:#989AAF"/>
		<stop  offset="1" style="stop-color:#7E8096"/>
	</linearGradient>
	<path class="st3" d="M31.9,4.7C28.8,3,25.3,2,21.5,2c0,0,0,0,0,0c0.5,0.7,1,1.3,1.7,1.8c2.2,0.2,4.4,0.7,6.4,1.7
		c2.2,1,4.2,2.3,5.9,4.1c3.7,3.7,5.8,8.7,5.8,14c0,4.9-1.8,9.5-5,13.2L23.1,23.5l6.7-6.7c-0.5-0.6-1-1.1-1.6-1.6l-8.4,8.4l14.8,14.8
		c-3.6,3.2-8.3,5-13.2,5c-5.3,0-10.3-2.1-14-5.8c-3.7-3.7-5.8-8.7-5.8-14c0-5.3,2.1-10.3,5.8-14c2.3-2.3,5.1-4,8.1-4.9v27.9
		c0.7,0.5,1.5,0.8,2.3,1.1V4V2.3c-0.8,0.1-1.5,0.3-2.3,0.5C6.6,5.4,0,13.7,0,23.5C0,35.4,9.6,45,21.5,45S43,35.4,43,23.5
		C43,15.4,38.5,8.4,31.9,4.7z"/>
</g>
</svg>
