<?xml version="1.0" encoding="utf-8"?>
<!-- Generator: Adobe Illustrator 26.0.3, SVG Export Plug-In . SVG Version: 6.00 Build 0)  -->
<svg version="1.1" id="Layer_1" xmlns="http://www.w3.org/2000/svg" xmlns:xlink="http://www.w3.org/1999/xlink" x="0px" y="0px"
	 viewBox="0 0 43 47" style="enable-background:new 0 0 43 47;" xml:space="preserve">
<style type="text/css">
	.st0{fill:none;}
	.st1{fill:url(#SVGID_1_);}
</style>
<g>
	<rect id="canvas_background" x="-1" y="-1" class="st0" width="45" height="49"/>
</g>
<g>
	
		<linearGradient id="SVGID_1_" gradientUnits="userSpaceOnUse" x1="21.5" y1="46.476" x2="21.5" y2="2.9122" gradientTransform="matrix(1 0 0 -1 0 48)">
		<stop  offset="0" style="stop-color:#D3EAED"/>
		<stop  offset="0.3" style="stop-color:#E2CDF7"/>
		<stop  offset="1" style="stop-color:#86A2DB"/>
	</linearGradient>
	<path class="st1" d="M31.9,4.7C28.8,3,25.3,2,21.5,2l0,0c0.5,0.7,1,1.3,1.7,1.8c2.2,0.2,4.4,0.7,6.4,1.7c2.2,1,4.2,2.3,5.9,4.1
		c3.7,3.7,5.8,8.7,5.8,14c0,4.9-1.8,9.5-5,13.2L23.1,23.5l6.7-6.7c-0.5-0.6-1-1.1-1.6-1.6l-8.4,8.4l14.8,14.8c-3.6,3.2-8.3,5-13.2,5
		c-5.3,0-10.3-2.1-14-5.8s-5.8-8.7-5.8-14s2.1-10.3,5.8-14c2.3-2.3,5.1-4,8.1-4.9v27.9c0.7,0.5,1.5,0.8,2.3,1.1V4V2.3
		c-0.8,0.1-1.5,0.3-2.3,0.5C6.6,5.4,0,13.7,0,23.5C0,35.4,9.6,45,21.5,45S43,35.4,43,23.5C43,15.4,38.5,8.4,31.9,4.7z"/>
</g>
</svg>
